<svg xmlns="http://www.w3.org/2000/svg" xmlns:xlink="http://www.w3.org/1999/xlink" viewBox="0,0,256,256" width="192px" height="192px" fill-rule="nonzero"><g fill="#416f8f" fill-rule="nonzero" stroke="none" stroke-width="1" stroke-linecap="butt" stroke-linejoin="miter" stroke-miterlimit="10" stroke-dasharray="" stroke-dashoffset="0" font-family="none" font-weight="none" font-size="none" text-anchor="none" style="mix-blend-mode: normal"><g transform="scale(5.12,5.12)"><path d="M17,5c-2.74952,0 -5,2.25048 -5,5v2h-2c-2.74952,0 -5,2.25048 -5,5v23c0,2.74952 2.25048,5 5,5h23c2.74952,0 5,-2.25048 5,-5v-2h2c2.74952,0 5,-2.25048 5,-5v-23c0,-2.74952 -2.25048,-5 -5,-5zM17,7h23c1.66848,0 3,1.33152 3,3v23c0,1.66848 -1.33152,3 -3,3h-2h-2h-19c-1.66848,0 -3,-1.33152 -3,-3v-10c0,-1.11667 0.88333,-2 2,-2h3v6c0,2.19733 1.80267,4 4,4h6h2h3c2.19733,0 4,-1.80267 4,-4v-10c0,-2.74952 -2.25048,-5 -5,-5h-19v-2c0,-1.66848 1.33152,-3 3,-3zM10,14h2h2h19c1.66848,0 3,1.33152 3,3v10c0,1.11667 -0.88333,2 -2,2h-3v-6c0,-2.19733 -1.80267,-4 -4,-4h-6h-2h-3c-2.19733,0 -4,1.80267 -4,4v10c0,2.74952 2.25048,5 5,5h19v2c0,1.66848 -1.33152,3 -3,3h-23c-1.66848,0 -3,-1.33152 -3,-3v-23c0,-1.66848 1.33152,-3 3,-3zM21,21h6c1.11667,0 2,0.88333 2,2v6h-6c-1.11667,0 -2,-0.88333 -2,-2z"></path></g></g></svg>